<svg width="709" height="168" viewBox="0 0 709 168" fill="none" xmlns="http://www.w3.org/2000/svg">
<g clip-path="url(#clip0_325_348)">
<path d="M229.88 71.3872L247.144 9.11695C248.287 4.99246 252.059 2.13574 256.36 2.13574H268.205C274.747 2.13574 279.355 8.51969 277.265 14.6811L244.507 111.263C243.194 115.128 239.549 117.731 235.447 117.731H219.524C215.422 117.731 211.777 115.128 210.464 111.263L177.708 14.6839C175.618 8.52249 180.227 2.13855 186.767 2.13855H198.614C202.915 2.13855 206.689 4.99526 207.83 9.11975L225.092 71.3899C225.764 73.8071 229.209 73.8071 229.88 71.3899V71.3872Z" fill="white"/>
<path d="M348.662 119.872C331.615 119.872 317.739 114.674 307.034 104.273C296.326 93.8745 290.976 80.0218 290.976 62.7124V59.7206C290.976 48.1134 293.233 37.7317 297.742 28.5784C302.255 19.4279 308.647 12.3763 316.917 7.42353C325.19 2.47357 334.626 0 345.226 0C361.124 0 373.639 4.98658 382.771 14.9569C391.9 24.9301 396.467 39.0671 396.467 57.3709V60.47C396.467 65.7214 392.186 69.9783 386.905 69.9783H325.402C323.818 69.9783 322.638 71.4377 322.972 72.9758C324.311 79.1486 327.167 84.2027 331.526 88.1383C336.575 92.6969 342.967 94.9759 350.703 94.9759C359.282 94.9759 366.517 92.7587 372.407 88.3215C376.418 85.2986 382.065 85.7493 385.419 89.4823L388.382 92.7812C391.823 96.6155 391.63 102.532 387.83 106.014C384.201 109.338 379.951 112.122 375.089 114.364C367.14 118.033 358.331 119.867 348.662 119.867V119.872ZM345.115 24.8935C338.954 24.8935 333.96 26.9697 330.13 31.1197C326.297 35.2695 323.845 41.2083 322.77 48.9332H365.956V46.4652C365.812 39.5967 363.951 34.2863 360.37 30.5308C356.788 26.7754 351.701 24.8962 345.115 24.8962V24.8935Z" fill="white"/>
<path d="M483.115 20.8901C483.035 26.1923 478.366 30.39 472.748 30.2549C472.212 30.2408 471.689 30.235 471.178 30.235C466.651 30.235 462.693 30.7648 459.306 31.8212C451.814 34.1596 446.826 40.8534 446.826 48.2967V108.229C446.826 113.48 442.313 117.737 436.744 117.737H424.166C418.598 117.737 414.085 113.48 414.085 108.229V9.30838C414.085 5.3473 417.491 2.13843 421.688 2.13843H437.862C441.879 2.13843 445.201 5.08529 445.452 8.86607L445.636 11.7003C445.724 13.0046 447.497 13.4948 448.308 12.4356C454.632 4.14713 462.935 0.00292969 473.212 0.00292969C473.268 0.00292969 473.321 0.00292969 473.377 0.00292969C478.933 0.0254678 483.363 4.40634 483.283 9.64928L483.112 20.893L483.115 20.8901Z" fill="white"/>
<path d="M557.283 85.7888C557.283 82.0137 555.403 79.0415 551.643 76.8693C547.884 74.6973 541.849 72.7562 533.541 71.0459C505.896 65.2762 492.075 53.5958 492.075 36.0047C492.075 25.7471 496.352 17.1854 504.914 10.3112C513.47 3.43707 524.66 0 538.485 0C553.238 0 565.036 3.4568 573.881 10.3619C578.898 14.2808 582.493 18.8673 584.665 24.1159C587.259 30.3899 582.659 37.2838 575.835 37.2838H563.659C559.787 37.2838 556.437 34.8243 555.028 31.2351C554.311 29.4095 553.238 27.7756 551.808 26.3331C548.943 23.4482 544.464 22.0057 538.379 22.0057C533.152 22.0057 529.105 23.1806 526.241 25.5301C523.376 27.8826 521.944 30.8716 521.944 34.5059C521.944 37.9233 523.573 40.6842 526.834 42.786C530.091 44.8876 535.586 46.7047 543.323 48.2346C551.056 49.7671 557.573 51.4913 562.875 53.4156C579.271 59.3994 587.476 69.7613 587.476 84.5042C587.476 95.0464 582.925 103.574 573.833 110.091C564.736 116.607 552.992 119.867 538.596 119.867C528.855 119.867 520.206 118.14 512.652 114.686C505.094 111.232 499.17 106.496 494.873 100.475C493.425 98.4496 492.225 96.3677 491.264 94.2323C488.466 88.0004 493.187 80.9769 500.052 80.9769H510.178C514.107 80.9769 517.672 83.3546 519.07 87.0031C520.088 89.6512 521.726 91.8431 523.987 93.5814C527.782 96.503 532.866 97.9622 539.24 97.9622C545.184 97.9622 549.677 96.8409 552.722 94.5985C555.765 92.3559 557.289 89.4175 557.289 85.7831L557.283 85.7888Z" fill="white"/>
<path d="M660.955 119.872C643.906 119.872 630.032 114.674 619.325 104.273C608.617 93.8745 603.267 80.0218 603.267 62.7124V59.7206C603.267 48.1134 605.524 37.7317 610.033 28.5784C614.546 19.4279 620.938 12.3763 629.21 7.42353C637.481 2.47357 646.917 0 657.518 0C673.415 0 685.93 4.98658 695.062 14.9569C704.191 24.9301 708.758 39.0671 708.758 57.3709V60.47C708.758 65.7214 704.477 69.9783 699.198 69.9783H637.693C636.111 69.9783 634.929 71.4377 635.263 72.9758C636.604 79.1486 639.458 84.2027 643.819 88.1383C648.866 92.6969 655.258 94.9759 662.994 94.9759C671.573 94.9759 678.81 92.7587 684.698 88.3215C688.709 85.2986 694.356 85.7493 697.71 89.4823L700.673 92.7812C704.114 96.6155 703.921 102.532 700.121 106.014C696.492 109.338 692.242 112.122 687.38 114.364C679.433 118.033 670.622 119.867 660.955 119.867V119.872ZM657.408 24.8935C651.246 24.8935 646.251 26.9697 642.422 31.1197C638.588 35.2695 636.136 41.2083 635.063 48.9332H678.249V46.4652C678.104 39.5967 676.242 34.2863 672.663 30.5308C669.079 26.7754 663.994 24.8962 657.408 24.8962V24.8935Z" fill="white"/>
<path d="M67.9499 8.63104C67.9499 3.86425 71.4679 0 75.8078 0H91.5076C95.8475 0 99.3655 3.86425 99.3655 8.63104V71.7398C99.3655 87.38 95.0708 99.4876 86.4816 108.063C77.8923 116.577 65.5966 120.835 49.5945 120.835C33.5925 120.835 21.2968 116.698 12.7075 108.425C4.23583 100.092 0 88.1047 0 72.4645V8.63104C0 3.86423 3.51812 0 7.85793 0H23.6461C27.9859 0 31.5041 3.86425 31.5041 8.63104V69.9282C31.5041 78.2615 33.0042 84.3607 36.0045 88.2254C39.0638 92.0903 43.7114 94.0226 49.9475 94.0226C56.1835 94.0226 60.7431 92.1205 63.6257 88.316C66.5085 84.5117 67.9499 78.3522 67.9499 69.8376V8.63104Z" fill="url(#paint0_linear_325_348)"/>
<path d="M155.195 110.573C155.195 115.34 151.676 119.204 147.337 119.204H131.548C127.209 119.204 123.69 115.34 123.69 110.573V8.63104C123.69 3.86425 127.209 0 131.548 0H147.337C151.676 0 155.195 3.86425 155.195 8.63104V110.573Z" fill="url(#paint1_linear_325_348)"/>
<path d="M5.10948e-06 148.733C5.10948e-06 143.966 3.51812 140.102 7.85793 140.102H149.301C153.641 140.102 157.159 143.966 157.159 148.733V159.369C157.159 164.136 153.641 168 149.301 168H7.85793C3.51812 168 0 164.136 0 159.369L5.10948e-06 148.733Z" fill="url(#paint2_linear_325_348)"/>
</g>
<defs>
<linearGradient id="paint0_linear_325_348" x1="-8.38598e-06" y1="1.72812e-06" x2="171.863" y2="156.469" gradientUnits="userSpaceOnUse">
<stop stop-color="#BF66FF"/>
<stop offset="0.510417" stop-color="#6248FF"/>
<stop offset="1" stop-color="#00DDEB"/>
</linearGradient>
<linearGradient id="paint1_linear_325_348" x1="0.000263365" y1="-2.40319e-06" x2="171.864" y2="156.469" gradientUnits="userSpaceOnUse">
<stop stop-color="#BF66FF"/>
<stop offset="0.510417" stop-color="#6248FF"/>
<stop offset="1" stop-color="#00DDEB"/>
</linearGradient>
<linearGradient id="paint2_linear_325_348" x1="-2.18769e-06" y1="-9.45073e-05" x2="171.863" y2="156.469" gradientUnits="userSpaceOnUse">
<stop stop-color="#BF66FF"/>
<stop offset="0.510417" stop-color="#6248FF"/>
<stop offset="1" stop-color="#00DDEB"/>
</linearGradient>
<clipPath id="clip0_325_348">
<rect width="709" height="168" fill="white"/>
</clipPath>
</defs>
</svg>
