<svg width="28" height="16" viewBox="0 0 28 16" fill="none" xmlns="http://www.w3.org/2000/svg">
<path d="M27.5747 8.12804C27.8156 8.12804 28.0121 7.93285 27.9994 7.69273C27.7737 3.41007 24.2366 0.00625159 19.904 0H19.8801C19.1835 0.00100494 18.5073 0.0898695 17.8623 0.256075C17.8623 0.256075 17.118 0.432739 16.3592 0.807787C15.6004 1.18283 14.8177 1.78275 14.8177 1.78275V14.4733L17.8623 16L17.8624 8.30801C17.8624 8.19277 17.9082 8.08222 17.9897 8.00061L19.5832 6.40523C19.7537 6.23461 20.0305 6.23461 20.2009 6.40523L21.9217 8.12802L27.5747 8.12804Z" fill="#FAFAFE"/>
<path d="M0.425186 7.87196C0.184314 7.87196 -0.0121727 8.06715 0.000588444 8.30726C0.228197 12.5899 3.79452 15.9937 8.16292 16H8.18703C8.88941 15.999 9.57115 15.9101 10.2215 15.7439C10.2215 15.7439 10.972 15.5673 11.737 15.1922C12.5021 14.8172 13.2912 14.2172 13.2912 14.2172V1.52668L10.2215 6.40161e-07L10.2214 7.69094C10.2214 7.8068 10.1751 7.91789 10.0928 7.99961L8.48251 9.59857C8.31237 9.7675 8.03749 9.7675 7.86736 9.59857L6.12849 7.87198L0.425186 7.87196Z" fill="#FAFAFE"/>
</svg>
