<svg width="985" height="168" viewBox="0 0 985 168" fill="none" xmlns="http://www.w3.org/2000/svg">
<path d="M319.455 99.1544L343.434 12.6634C345.022 6.93466 350.261 2.9668 356.234 2.9668H372.687C381.774 2.9668 388.173 11.8339 385.271 20.3918L339.771 154.54C337.947 159.909 332.885 163.524 327.187 163.524H305.07C299.373 163.524 294.31 159.909 292.487 154.54L246.99 20.3957C244.087 11.8378 250.489 2.97069 259.572 2.97069H276.028C282.001 2.97069 287.243 6.93856 288.828 12.6673L312.805 99.1581C313.737 102.516 318.522 102.516 319.455 99.1581V99.1544Z" fill="white"/>
<path d="M484.438 166.498C460.762 166.498 441.488 159.278 426.619 144.831C411.746 130.388 404.314 111.147 404.314 87.1052V82.9496C404.314 66.8277 407.45 52.4079 413.713 39.6943C419.982 26.9847 428.859 17.1902 440.347 10.311C451.837 3.43569 464.944 0 479.666 0C501.748 0 519.131 6.92617 531.814 20.7746C544.495 34.627 550.837 54.2628 550.837 79.686V83.9905C550.837 91.2845 544.892 97.1971 537.557 97.1971H452.132C449.932 97.1971 448.292 99.2242 448.756 101.361C450.616 109.934 454.583 116.954 460.638 122.421C467.65 128.752 476.528 131.918 487.274 131.918C499.19 131.918 509.239 128.838 517.42 122.675C522.991 118.476 530.834 119.103 535.493 124.288L539.608 128.87C544.388 134.195 544.12 142.413 538.841 147.249C533.801 151.867 527.897 155.733 521.145 158.848C510.104 163.943 497.868 166.49 484.438 166.49V166.498ZM479.512 34.5761C470.954 34.5761 464.019 37.4599 458.698 43.224C453.375 48.9879 449.969 57.2367 448.476 67.9664H508.46V64.5384C508.259 54.9983 505.674 47.6224 500.701 42.4061C495.725 37.1901 488.66 34.5798 479.512 34.5798V34.5761Z" fill="white"/>
<path d="M671.189 29.0154C671.077 36.38 664.593 42.2104 656.789 42.0227C656.045 42.0031 655.318 41.9952 654.609 41.9952C648.321 41.9952 642.824 42.7309 638.118 44.1983C627.712 47.4463 620.784 56.7436 620.784 67.082V150.325C620.784 157.619 614.516 163.532 606.782 163.532H589.311C581.577 163.532 575.309 157.619 575.309 150.325V12.9288C575.309 7.42703 580.039 2.97003 585.868 2.97003H608.334C613.913 2.97003 618.527 7.06311 618.877 12.3145L619.132 16.251C619.254 18.0628 621.717 18.7437 622.843 17.2723C631.627 5.76005 643.159 0.00390625 657.434 0.00390625C657.511 0.00390625 657.586 0.00390625 657.662 0.00390625C665.379 0.0352108 671.534 6.12007 671.422 13.4023L671.184 29.0194L671.189 29.0154Z" fill="white"/>
<path d="M774.205 119.157C774.205 113.914 771.593 109.786 766.371 106.768C761.15 103.752 752.768 101.056 741.228 98.6801C702.83 90.6662 683.633 74.4424 683.633 50.0092C683.633 35.7617 689.574 23.8698 701.465 14.3219C713.35 4.77395 728.893 0 748.095 0C768.586 0 784.973 4.80136 797.259 14.3923C804.227 19.8354 809.22 26.2059 812.236 33.496C815.841 42.2105 809.451 51.7858 799.973 51.7858H783.06C777.682 51.7858 773.029 48.3696 771.072 43.3844C770.077 40.8486 768.586 38.5792 766.599 36.5757C762.621 32.5686 756.399 30.565 747.948 30.565C740.688 30.565 735.067 32.197 731.088 35.4603C727.109 38.7279 725.12 42.8795 725.12 47.9274C725.12 52.674 727.382 56.5088 731.912 59.4281C736.436 62.3472 744.069 64.8711 754.814 66.996C765.555 69.1246 774.607 71.5194 781.971 74.1922C804.745 82.5035 816.141 96.8957 816.141 117.373C816.141 132.016 809.82 143.861 797.192 152.912C784.556 161.963 768.244 166.49 748.248 166.49C734.72 166.49 722.706 164.091 712.214 159.294C701.716 154.496 693.488 147.918 687.52 139.556C685.508 136.743 683.841 133.851 682.507 130.885C678.62 122.229 685.178 112.474 694.713 112.474H708.778C714.235 112.474 719.186 115.776 721.129 120.844C722.543 124.522 724.817 127.567 727.958 129.981C733.229 134.039 740.291 136.066 749.144 136.066C757.399 136.066 763.64 134.508 767.869 131.394C772.096 128.279 774.212 124.197 774.212 119.149L774.205 119.157Z" fill="white"/>
<path d="M918.2 166.498C894.521 166.498 875.25 159.278 860.379 144.831C845.506 130.388 838.074 111.147 838.074 87.1052V82.9496C838.074 66.8277 841.21 52.4079 847.473 39.6943C853.741 26.9847 862.619 17.1902 874.109 10.311C885.596 3.43569 898.704 0 913.428 0C935.507 0 952.891 6.92617 965.574 20.7746C978.254 34.627 984.597 54.2628 984.597 79.686V83.9905C984.597 91.2845 978.651 97.1971 971.319 97.1971H885.892C883.694 97.1971 882.052 99.2242 882.516 101.361C884.378 109.934 888.342 116.954 894.4 122.421C901.41 128.752 910.288 131.918 921.033 131.918C932.95 131.918 943.001 128.838 951.179 122.675C956.751 118.476 964.594 119.103 969.253 124.288L973.368 128.87C978.148 134.195 977.88 142.413 972.601 147.249C967.561 151.867 961.657 155.733 954.905 158.848C943.867 163.943 931.628 166.49 918.2 166.49V166.498ZM913.274 34.5761C904.716 34.5761 897.778 37.4599 892.46 43.224C887.134 48.9879 883.728 57.2367 882.238 67.9664H942.222V64.5384C942.021 54.9983 939.434 47.6224 934.463 42.4061C929.485 37.1901 922.422 34.5798 913.274 34.5798V34.5761Z" fill="white"/>
<path d="M94.5399 11.9882C94.5399 5.36729 99.4263 0 105.454 0H127.261C133.289 0 138.175 5.36729 138.175 11.9882V99.6438C138.175 121.367 132.21 138.185 120.28 150.095C108.35 161.921 91.2713 167.835 69.045 167.835C46.8188 167.835 29.7406 162.089 17.8104 150.598C6.04356 139.023 0.160156 122.374 0.160156 100.65V11.9882C0.160156 5.36727 5.04668 0 11.0745 0H33.0037C39.0314 0 43.9181 5.36729 43.9181 11.9882V97.1276C43.9181 108.702 46.0017 117.174 50.169 122.542C54.4182 127.91 60.8736 130.594 69.5354 130.594C78.1969 130.594 84.53 127.952 88.5338 122.668C92.5379 117.383 94.5399 108.828 94.5399 97.0017V11.9882Z" fill="url(#paint0_linear_326_373)"/>
<path d="M215.72 153.582C215.72 160.202 210.833 165.57 204.805 165.57H182.876C176.849 165.57 171.962 160.202 171.962 153.582V11.9882C171.962 5.3673 176.849 0 182.876 0H204.805C210.833 0 215.72 5.3673 215.72 11.9882V153.582Z" fill="url(#paint1_linear_326_373)"/>
<defs>
<linearGradient id="paint0_linear_326_373" x1="0.160145" y1="2.4003e-06" x2="238.872" y2="217.33" gradientUnits="userSpaceOnUse">
<stop stop-color="#BF66FF"/>
<stop offset="0.510417" stop-color="#6248FF"/>
<stop offset="1" stop-color="#00DDEB"/>
</linearGradient>
<linearGradient id="paint1_linear_326_373" x1="0.161025" y1="-3.33794e-06" x2="238.873" y2="217.33" gradientUnits="userSpaceOnUse">
<stop stop-color="#BF66FF"/>
<stop offset="0.510417" stop-color="#6248FF"/>
<stop offset="1" stop-color="#00DDEB"/>
</linearGradient>
</defs>
</svg>
