<svg width="57" height="32" viewBox="0 0 57 32" fill="none" xmlns="http://www.w3.org/2000/svg">
<path d="M55.25 16.2561C55.7318 16.2561 56.1247 15.8657 56.0994 15.3855C55.6479 6.82013 48.5738 0.0125032 39.9086 0H39.8608C38.4675 0.00200987 37.1152 0.179739 35.8251 0.512151C35.8251 0.512151 34.3366 0.865479 32.819 1.61557C31.3014 2.36567 29.736 3.5655 29.736 3.5655V28.9466L35.8251 32L35.8253 16.616C35.8253 16.3855 35.9169 16.1644 36.0799 16.0012L39.2671 12.8105C39.6079 12.4692 40.1616 12.4692 40.5024 12.8105L43.9441 16.256L55.25 16.2561Z" fill="#FAFAFE"/>
<path d="M0.950957 15.7439C0.469214 15.7439 0.0762406 16.1343 0.101763 16.6145C0.556979 25.1799 7.68963 31.9875 16.4264 32H16.4746C17.8794 31.998 19.2429 31.8203 20.5436 31.4878C20.5436 31.4878 22.0445 31.1345 23.5746 30.3844C25.1047 29.6343 26.6831 28.4345 26.6831 28.4345V3.05335L20.5436 1.28032e-06L20.5434 15.3819C20.5434 15.6136 20.4509 15.8358 20.2863 15.9992L17.0656 19.1971C16.7253 19.535 16.1756 19.535 15.8353 19.1971L12.3576 15.744L0.950957 15.7439Z" fill="#FAFAFE"/>
</svg>
