<svg width="28" height="16" viewBox="0 0 28 16" fill="none" xmlns="http://www.w3.org/2000/svg">
<path d="M13.0908 1.65039V14.1162C13.0755 14.1274 13.0583 14.1404 13.0391 14.1543C12.9546 14.2153 12.8337 14.3015 12.6895 14.3984C12.4144 14.5833 12.0569 14.8056 11.7041 14.9834C11.2188 15.2212 10.7066 15.4131 10.1719 15.5498C9.53748 15.7119 8.87215 15.7988 8.18652 15.7998H8.16309L7.76562 15.79C3.68605 15.5856 0.415296 12.3421 0.200195 8.29688C0.193912 8.17864 0.291315 8.07247 0.424805 8.07227H6.0459L7.72656 9.74023C7.97466 9.98658 8.37492 9.98654 8.62305 9.74023L10.2334 8.1416C10.3534 8.02249 10.4217 7.86045 10.4219 7.69141V0.322266L13.0908 1.65039ZM19.9033 0.200195L20.2979 0.209961C24.3419 0.414339 27.5864 3.65653 27.7998 7.70312C27.806 7.82143 27.7086 7.92749 27.5752 7.92773H22.0049L20.3428 6.26367C20.0942 6.01484 19.69 6.01484 19.4414 6.26367L17.8486 7.85938C17.7298 7.97836 17.6622 8.13946 17.6621 8.30762V15.6758L15.0176 14.3496V1.88281C15.0328 1.87154 15.0501 1.85874 15.0693 1.84473C15.1531 1.78372 15.273 1.69847 15.416 1.60156C15.6946 1.41277 16.0579 1.18339 16.415 1.00391C16.8895 0.771366 17.3903 0.584672 17.9121 0.450195C18.4623 0.308424 19.0359 0.223598 19.626 0.204102L19.8809 0.200195H19.9033ZM6.23145 8.04395C6.22117 8.0501 6.21026 8.05356 6.2002 8.05762C6.21219 8.05298 6.22522 8.04558 6.23926 8.03613C6.23632 8.03811 6.23458 8.04207 6.23145 8.04395ZM21.8115 7.96191C21.8141 7.96024 21.8167 7.95766 21.8193 7.95605C21.8295 7.95002 21.8397 7.94541 21.8496 7.94141C21.838 7.9459 21.8251 7.95293 21.8115 7.96191Z" stroke="black" stroke-width="0.4"/>
</svg>
