<svg width="113" height="64" viewBox="0 0 113 64" fill="none" xmlns="http://www.w3.org/2000/svg">
<path d="M110.4 32.5122C111.363 32.5122 112.149 31.7314 112.098 30.7709C111.195 13.6403 97.0469 0.0250064 79.7166 0H79.6209C76.8344 0.00401974 74.1298 0.359478 71.5497 1.0243C71.5497 1.0243 68.5725 1.73096 65.5374 3.23115C62.5023 4.73134 59.3714 7.13101 59.3714 7.13101V57.8933L71.5497 64L71.5501 33.2321C71.5501 32.7711 71.7332 32.3289 72.0593 32.0024L78.4335 25.6209C79.1152 24.9384 80.2226 24.9384 80.9043 25.6209L87.7876 32.5121L110.4 32.5122Z" fill="#FAFAFE"/>
<path d="M1.80133 31.4878C0.837842 31.4878 0.0518953 32.2686 0.10294 33.2291C1.01337 50.3597 15.2787 63.975 32.7523 64H32.8487C35.6582 63.996 38.3852 63.6405 40.9866 62.9757C40.9866 62.9757 43.9884 62.269 47.0486 60.7689C50.1088 59.2687 53.2655 56.869 53.2655 56.869V6.10671L40.9866 2.56065e-06L40.9862 30.7637C40.9862 31.2272 40.8012 31.6716 40.472 31.9984L34.0306 38.3943C33.3501 39.07 32.2506 39.07 31.57 38.3943L24.6146 31.4879L1.80133 31.4878Z" fill="#FAFAFE"/>
</svg>
