<?xml version="1.0" standalone="no"?>
<!DOCTYPE svg PUBLIC "-//W3C//DTD SVG 20010904//EN"
 "http://www.w3.org/TR/2001/REC-SVG-20010904/DTD/svg10.dtd">
<svg version="1.0" xmlns="http://www.w3.org/2000/svg"
 width="1280.000000pt" height="1097.000000pt" viewBox="0 0 1280.000000 1097.000000"
 preserveAspectRatio="xMidYMid meet">
<metadata>
Created by potrace 1.15, written by Peter Selinger 2001-2017
</metadata>
<g transform="translate(0.000000,1097.000000) scale(0.100000,-0.100000)"
fill="#000000" stroke="none">
<path d="M8575 10278 c6 -55 -69 -747 -83 -759 -11 -11 -977 -168 -1076 -175
-75 -6 -86 -9 -72 -20 16 -11 11 -27 -64 -206 -45 -106 -278 -654 -518 -1218
-239 -564 -437 -1033 -440 -1042 -2 -10 -8 -18 -14 -18 -5 0 -4 9 2 21 7 11
10 22 8 24 -2 1 -201 13 -443 25 -426 21 -1139 35 -2165 41 l-426 2 -484 -327
c-267 -180 -490 -333 -497 -339 -6 -7 -18 -91 -27 -197 -18 -201 -22 -231 -34
-227 -4 1 -354 -360 -777 -803 -968 -1013 -922 -964 -863 -917 46 37 65 46 53
27 -3 -5 341 247 766 560 425 314 774 568 776 566 2 -2 -14 -196 -37 -432 -22
-236 -63 -672 -90 -969 -28 -297 -95 -1020 -150 -1606 -55 -586 -100 -1078
-100 -1094 0 -20 3 -26 11 -18 10 10 425 720 782 1340 106 183 194 332 197
333 3 0 57 -263 120 -585 63 -321 117 -581 121 -577 3 4 46 111 94 237 49 127
119 311 157 410 38 99 107 279 153 400 173 457 426 1118 439 1150 14 33 15 34
68 29 44 -4 1340 -98 2056 -149 100 -7 188 -18 195 -24 10 -8 17 -7 25 1 9 9
164 -296 630 -1233 340 -684 676 -1363 748 -1508 l129 -265 6 90 c4 49 12 271
19 494 7 223 15 440 19 482 l6 77 260 -430 c143 -236 261 -424 263 -416 2 8
-13 171 -32 363 -267 2638 -346 3414 -350 3441 -5 32 -38 -32 1611 3048 118
220 216 401 218 403 1 2 234 -110 516 -249 283 -138 660 -323 839 -411 l324
-158 22 27 c12 16 30 38 40 51 l19 23 119 -51 c66 -28 123 -47 127 -43 5 5 47
96 94 203 59 135 94 202 115 219 l29 26 -7 115 c-7 110 -6 115 16 142 13 15
19 28 14 28 -6 0 -77 75 -158 168 -82 92 -183 205 -225 252 -42 47 -219 247
-394 445 -174 198 -339 383 -365 410 -26 28 -60 68 -75 90 -14 22 -32 42 -39
45 -6 3 -58 56 -115 118 -57 61 -109 112 -116 112 -10 0 -917 -147 -1018 -165
-16 -2 -44 2 -62 10 -19 7 -226 154 -460 324 -234 171 -428 311 -431 311 -3 0
-3 -24 1 -52z m-3481 -3383 c-4 -8 -8 -15 -10 -15 -2 0 -4 7 -4 15 0 8 4 15
10 15 5 0 7 -7 4 -15z m-4204 -2529 c0 -2 -8 -10 -17 -17 -16 -13 -17 -12 -4
4 13 16 21 21 21 13z m-40 -30 c0 -4 -151 -129 -180 -150 -35 -24 13 20 92 85
86 70 88 72 88 65z"/>
</g>
</svg>
