<?xml version="1.0" encoding="utf-8" ?>
<svg baseProfile="full" height="445" version="1.1" viewBox="0 0 453 445" width="453" xmlns="http://www.w3.org/2000/svg" xmlns:ev="http://www.w3.org/2001/xml-events" xmlns:xlink="http://www.w3.org/1999/xlink"><defs><mask id="paddleMask"><rect fill="black" height="445" width="453" x="0" y="0" /><path d="M 321 38 L 293 27 L 274 23 L 252 22 L 236 24 L 222 28 L 202 38 L 179 59 L 168 75 L 158 94 L 146 128 L 142 155 L 142 189 L 151 259 L 153 308 L 182 326 L 186 326 L 228 305 L 290 281 L 324 263 L 344 248 L 359 233 L 371 218 L 386 194 L 393 177 L 398 153 L 396 126 L 390 107 L 384 95 L 372 78 L 348 55 Z" fill="white" /><circle cx="290.5" cy="233.5" fill="black" r="4.890519595146179" /><circle cx="244.4130401611328" cy="230.80435180664062" fill="black" r="4.967366623878479" /><circle cx="319.4285583496094" cy="223.92857360839844" fill="black" r="5.043950009346008" /><circle cx="272.4375" cy="222.71875" fill="black" r="5.045660066604614" /><circle cx="226.3333282470703" cy="220.0" fill="black" r="5.007036328315735" /><circle cx="301.21429443359375" cy="214.7857208251953" fill="black" r="5.086211752891541" /><circle cx="254.82786560058594" cy="213.0737762451172" fill="black" r="4.9917885065078735" /><circle cx="209.22222900390625" cy="210.0833282470703" fill="black" r="4.9668900728225704" /><circle cx="330.0970153808594" cy="205.5746307373047" fill="black" r="5.028034472465515" /><circle cx="283.172119140625" cy="204.9262237548828" fill="black" r="4.991784882545471" /><circle cx="236.75" cy="202.5" fill="black" r="5.010162901878357" /><circle cx="312.2391357421875" cy="196.71739196777344" fill="black" r="5.023709726333618" /><circle cx="265.4130554199219" cy="195.19564819335938" fill="black" r="4.967356657981872" /><circle cx="219.75" cy="192.5" fill="black" r="5.010162901878357" /><circle cx="341.2796630859375" cy="186.82203674316406" fill="black" r="5.067156052589416" /><circle cx="294.0" cy="186.4375" fill="black" r="5.088709115982056" /><circle cx="247.0737762451172" cy="185.17213439941406" fill="black" r="4.9917885065078735" /><circle cx="202.71875" cy="181.4375" fill="black" r="5.045660066604614" /><circle cx="323.21429443359375" cy="178.0" fill="black" r="5.043936872482299" /><circle cx="276.0" cy="177.5" fill="black" r="5.049414491653442" /><circle cx="230.5" cy="174.5" fill="black" r="4.890519595146179" /><circle cx="184.88461303710938" cy="170.88461303710938" fill="black" r="4.973893833160401" /><circle cx="304.7608642578125" cy="168.71739196777344" fill="black" r="5.023717427253723" /><circle cx="352.4130554199219" cy="168.19564819335938" fill="black" r="4.967356657981872" /><circle cx="257.4375" cy="167.71875" fill="black" r="5.045660066604614" /><circle cx="213.5" cy="163.5" fill="black" r="4.890519595146179" /><circle cx="286.5" cy="159.5" fill="black" r="4.890519595146179" /><circle cx="334.5" cy="159.125" fill="black" r="5.073097538948059" /><circle cx="241.0" cy="156.6666717529297" fill="black" r="5.007036328315735" /><circle cx="195.7608642578125" cy="152.28260803222656" fill="black" r="5.023717427253723" /><circle cx="363.5" cy="149.5" fill="black" r="4.890519595146179" /><circle cx="315.7203369140625" cy="150.17796325683594" fill="black" r="5.067153334617615" /><circle cx="267.8333435058594" cy="150.1666717529297" fill="black" r="5.031998634338379" /><circle cx="224.3000030517578" cy="145.10000610351562" fill="black" r="5.1071781873703" /><circle cx="297.1666564941406" cy="142.1666717529297" fill="black" r="5.032018113136291" /><circle cx="345.5625" cy="140.71875" fill="black" r="5.045660066604614" /><circle cx="179.5" cy="140.75" fill="black" r="5.010162901878357" /><circle cx="251.5869598388672" cy="138.80435180664062" fill="black" r="4.967361187934875" /><circle cx="206.84327697753906" cy="134.06716918945312" fill="black" r="5.002784967422485" /><circle cx="278.1153869628906" cy="132.88461303710938" fill="black" r="4.973887944221496" /><circle cx="326.2391357421875" cy="132.28260803222656" fill="black" r="5.023709726333618" /><circle cx="235.0" cy="127.4000015258789" fill="black" r="4.987368631362915" /><circle cx="307.7272644042969" cy="123.81818389892578" fill="black" r="5.0691410779953" /><circle cx="190.28125" cy="122.5625" fill="black" r="5.045660066604614" /><circle cx="356.5" cy="121.92857360839844" fill="black" r="5.1006790637969965" /><circle cx="262.0" cy="121.33333587646484" fill="black" r="5.007034063339233" /><circle cx="217.71875" cy="115.4375" fill="black" r="5.045660066604614" /><circle cx="288.5" cy="115.25" fill="black" r="5.010162901878357" /><circle cx="337.0" cy="114.0" fill="black" r="5.116001629829406" /><circle cx="245.8333282470703" cy="108.83333587646484" fill="black" r="5.032011318206787" /><circle cx="318.2826232910156" cy="106.23912811279297" fill="black" r="5.023708367347717" /><circle cx="201.23333740234375" cy="103.76667022705078" fill="black" r="5.060622048377991" /><circle cx="272.78570556640625" cy="103.0" fill="black" r="5.043947744369507" /><circle cx="299.2368469238281" cy="97.28947448730469" fill="black" r="5.020674204826355" /><circle cx="229.0833282470703" cy="96.77777862548828" fill="black" r="4.966892790794373" /><circle cx="256.5714416503906" cy="91.07142639160156" fill="black" r="5.043930530548096" /><circle cx="283.5" cy="85.5" fill="black" r="4.890519595146179" /><circle cx="212.5" cy="85.16666412353516" fill="black" r="4.931360745429992" /><circle cx="239.88461303710938" cy="78.11538696289062" fill="black" r="4.973893833160401" /><circle cx="267.25" cy="72.75" fill="black" r="5.038230943679809" /><circle cx="223.5" cy="66.5" fill="black" r="4.890519595146179" /><circle cx="251.23333740234375" cy="59.233333587646484" fill="black" r="5.060619783401489" /></mask></defs><rect fill="black" height="445" mask="url(#paddleMask)" width="453" x="0" y="0" /><circle cx="309.5500793457031" cy="387.2893981933594" fill="black" r="43.2431526184082" /><circle cx="113.36274719238281" cy="410.4902038574219" fill="black" r="22.412433624267578" /><polygon fill="black" points="281,418 287,424 304,430 324,428 338,419 330,416" /><circle cx="161.89752197265625" cy="328.52484130859375" fill="black" r="19.262266159057617" /><circle cx="125.5" cy="391.5" fill="black" r="20.359373092651367" /><polygon fill="black" points="282,355 291,358 337,357 331,350 318,345 301,345" /><circle cx="144.0" cy="359.0" fill="black" r="19.69781494140625" /><circle cx="134.0" cy="375.5" fill="black" r="19.241981506347656" /><circle cx="153.0" cy="344.0" fill="black" r="18.788393020629883" /></svg>