<?xml version="1.0" encoding="utf-8" ?>
<svg baseProfile="tiny" height="100%" version="1.2" width="100%" xmlns="http://www.w3.org/2000/svg" xmlns:ev="http://www.w3.org/2001/xml-events" xmlns:xlink="http://www.w3.org/1999/xlink"><defs /><polygon fill="black" points="290,416 289,417 282,417 281,418 281,419 284,422 285,422 287,424 288,424 289,425 290,425 291,426 292,426 293,427 294,427 295,428 297,428 298,429 303,429 304,430 316,430 317,429 320,429 321,428 324,428 325,427 326,427 327,426 328,426 329,425 330,425 331,424 332,424 334,422 335,422 338,419 338,418 337,417 331,417 330,416" /><polygon fill="black" points="107,389 96,400 96,401 95,402 95,403 93,405 93,406 92,407 92,408 91,409 91,410 92,411 92,412 98,418 99,418 102,421 103,421 104,422 105,422 107,424 108,424 109,425 110,425 111,426 112,426 113,427 114,427 115,428 116,428 117,429 119,429 120,430 124,430 125,429 126,429 126,428 127,427 127,426 129,424 129,423 131,421 131,419 132,418 132,416 133,415 133,414 129,410 128,410 124,406 123,406 112,395 112,394" /><polygon fill="black" points="117,373 116,374 116,375 114,377 114,378 113,379 113,380 111,382 111,383 109,385 109,386 110,387 110,388 112,390 112,391 115,394 115,395 123,403 124,403 129,408 130,408 132,410 134,410 134,408 135,407 135,406 136,405 136,404 137,403 137,402 139,400 139,399 140,398 140,397 141,396 141,395 139,393 138,393 136,391 135,391 120,376 120,375 118,373" /><polygon fill="black" points="278,359 274,363 274,364 272,366 272,367 271,368 271,369 270,370 270,372 269,373 269,375 268,376 268,379 267,380 267,395 268,396 268,399 269,400 269,402 270,403 270,404 271,405 271,406 272,407 272,408 273,409 273,410 275,412 275,413 276,414 277,414 278,415 287,415 288,414 301,414 302,413 303,414 331,414 332,415 341,415 342,414 343,414 344,413 344,412 346,410 346,409 347,408 347,407 349,405 349,403 350,402 350,400 351,399 351,395 352,394 352,381 351,380 351,376 350,375 350,372 349,371 349,370 348,369 348,368 346,366 346,365 345,364 345,363 341,359 332,359 331,360 286,360 285,359" /><polygon fill="black" points="126,358 125,359 125,360 123,362 123,363 122,364 122,365 120,367 120,368 119,369 120,370 120,371 122,373 122,374 124,376 124,377 134,387 135,387 139,391 140,391 142,393 144,391 144,390 146,388 146,387 147,386 147,385 148,384 148,383 149,382 149,381 150,380 148,378 147,378 141,372 140,372 131,363 131,362 127,358" /><polygon fill="black" points="301,345 300,346 298,346 297,347 294,347 293,348 292,348 291,349 290,349 289,350 288,350 287,351 286,351 282,355 282,357 290,357 291,358 329,358 330,357 337,357 337,355 334,352 333,352 331,350 330,350 329,349 328,349 327,348 325,348 324,347 323,347 322,346 319,346 318,345" /><polygon fill="black" points="136,341 136,342 134,344 134,345 132,347 132,348 131,349 131,350 130,351 130,352 129,353 129,356 131,358 131,359 136,364 136,365 139,368 140,368 147,375 148,375 150,377 152,377 152,376 154,374 154,373 155,372 155,371 156,370 156,369 158,367 158,366 159,365 159,363 157,361 156,361 155,360 155,359 154,359 149,354 148,354 147,353 147,352 146,351 145,351 142,348 142,347 138,343 138,342 137,341" /><polygon fill="black" points="145,327 143,329 143,330 142,331 142,332 140,334 140,335 139,336 139,337 138,338 140,340 140,341 142,343 142,344 154,356 155,356 159,360 160,360 161,361 162,360 162,359 163,358 163,357 165,355 165,354 166,353 166,352 168,350 168,348 166,346 165,346 161,342 160,342 150,332 150,331 146,327" /><polygon fill="black" points="152,312 150,314 150,316 149,317 149,319 148,320 148,325 151,328 151,329 154,332 154,333 155,333 158,336 158,337 159,338 160,338 165,343 166,343 168,345 169,345 170,346 170,345 172,343 172,342 173,341 173,340 180,333 180,332 181,331 181,329 180,329 179,328 178,328 176,326 175,326 173,324 172,324 171,323 170,323 169,322 168,322 166,320 165,320 163,318 162,318 161,317 160,317 159,316 158,316 156,314 155,314 154,313 153,313" /><polygon fill="black" points="252,22 251,23 242,23 241,24 236,24 235,25 232,25 231,26 228,26 227,27 225,27 224,28 222,28 221,29 220,29 219,30 217,30 216,31 215,31 214,32 213,32 212,33 211,33 210,34 209,34 208,35 207,35 205,37 204,37 203,38 202,38 199,41 198,41 194,45 193,45 179,59 179,60 176,63 176,64 173,67 173,68 172,69 172,70 170,72 170,73 168,75 168,76 167,77 167,78 166,79 166,80 165,81 165,82 164,83 164,84 162,86 162,87 161,88 161,89 160,90 160,91 159,92 159,93 158,94 158,96 157,97 157,98 156,99 156,100 155,101 155,103 154,104 154,105 153,106 153,107 152,108 152,110 151,111 151,114 150,115 150,117 149,118 149,120 148,121 148,124 147,125 147,127 146,128 146,132 145,133 145,137 144,138 144,144 143,145 143,154 142,155 142,189 143,190 143,201 144,202 144,210 145,211 145,219 146,220 146,226 147,227 147,234 148,235 148,241 149,242 149,248 150,249 150,258 151,259 151,269 152,270 152,284 153,285 153,308 154,309 155,309 156,310 157,310 159,312 160,312 161,313 162,313 164,315 165,315 166,316 167,316 169,318 170,318 171,319 172,319 173,320 174,320 176,322 177,322 179,324 180,324 182,326 186,326 187,325 188,325 189,324 190,324 191,323 192,323 193,322 194,322 196,320 197,320 198,319 199,319 200,318 202,318 204,316 205,316 206,315 207,315 208,314 209,314 210,313 212,313 213,312 214,312 215,311 216,311 217,310 218,310 219,309 220,309 221,308 223,308 224,307 225,307 226,306 227,306 228,305 230,305 231,304 233,304 234,303 235,303 236,302 237,302 238,301 240,301 241,300 242,300 243,299 245,299 246,298 248,298 249,297 250,297 251,296 253,296 254,295 255,295 256,294 258,294 259,293 260,293 261,292 263,292 264,291 266,291 267,290 268,290 269,289 271,289 272,288 273,288 274,287 275,287 276,286 278,286 279,285 280,285 281,284 283,284 284,283 285,283 286,282 287,282 288,281 290,281 291,280 292,280 293,279 294,279 295,278 296,278 297,277 298,277 299,276 301,276 302,275 303,275 304,274 305,274 307,272 308,272 309,271 310,271 311,270 312,270 313,269 314,269 316,267 317,267 318,266 319,266 321,264 322,264 323,263 324,263 326,261 327,261 330,258 331,258 333,256 334,256 338,252 339,252 343,248 344,248 359,233 359,232 365,226 365,225 367,223 367,222 371,218 371,217 373,215 373,214 375,212 375,211 377,209 377,208 379,206 379,205 380,204 380,203 382,201 382,200 384,198 384,197 385,196 385,195 386,194 386,192 387,191 387,190 388,189 388,188 389,187 389,186 390,185 390,183 391,182 391,181 392,180 392,178 393,177 393,174 394,173 394,171 395,170 395,167 396,166 396,162 397,161 397,154 398,153 398,140 397,139 397,132 396,131 396,126 395,125 395,122 394,121 394,119 393,118 393,115 392,114 392,112 391,111 391,110 390,109 390,107 389,106 389,105 388,104 388,103 387,102 387,101 386,100 386,99 385,98 385,97 384,96 384,95 382,93 382,92 380,90 380,89 379,88 379,87 376,84 376,83 372,79 372,78 353,59 352,59 348,55 347,55 344,52 343,52 341,50 340,50 339,49 338,49 335,46 334,46 333,45 332,45 330,43 329,43 328,42 327,42 326,41 325,41 324,40 323,40 321,38 319,38 318,37 317,37 316,36 315,36 314,35 313,35 312,34 311,34 310,33 308,33 307,32 306,32 305,31 303,31 302,30 300,30 299,29 297,29 296,28 294,28 293,27 290,27 289,26 286,26 285,25 282,25 281,24 275,24 274,23 264,23 263,22" /></svg>