<svg width="357" height="331" viewBox="0 0 357 331" fill="none" xmlns="http://www.w3.org/2000/svg">
<path d="M346 329.497H277.036L220.745 330L150.991 329.56C145.471 329.525 141.024 325.025 141.054 319.506L141.337 266.946C141.367 261.444 145.835 257 151.337 257H346C351.523 257 356 261.477 356 267V319.497C356 325.019 351.523 329.497 346 329.497Z" fill="#EEEEEE" stroke="#E0E0E0"/>
<path d="M335 313H263.667H232.556H162.078C157.629 313 154.035 309.371 154.079 304.922L154.312 280.922C154.355 276.534 157.924 273 162.311 273H335C339.418 273 343 276.582 343 281V305C343 309.418 339.418 313 335 313Z" fill="white" stroke="#E0E0E0"/>
<g clip-path="url(#clip0_247_283)">
<path d="M173.428 298.495L179.504 301.966C179.655 302.053 179.826 302.098 180 302.098C180.174 302.098 180.345 302.053 180.496 301.966L186.572 298.495C186.705 298.419 186.819 298.313 186.905 298.186C186.991 298.059 187.046 297.914 187.067 297.761L188.39 288.057C188.421 287.829 188.372 287.598 188.252 287.401C188.133 287.205 187.949 287.056 187.732 286.979L180.332 284.367C180.117 284.292 179.882 284.292 179.667 284.367L172.268 286.98C172.051 287.057 171.867 287.206 171.747 287.402C171.627 287.599 171.579 287.83 171.61 288.058L172.933 297.762C172.953 297.915 173.009 298.06 173.095 298.187C173.18 298.314 173.294 298.419 173.428 298.495Z" stroke="black" stroke-width="2" stroke-linecap="round" stroke-linejoin="round"/>
<path d="M177 296.25L180 288.25L183 296.25" stroke="black" stroke-width="2" stroke-linecap="round" stroke-linejoin="round"/>
<path d="M178 294.25H182" stroke="black" stroke-width="2" stroke-linecap="round" stroke-linejoin="round"/>
</g>
<g clip-path="url(#clip1_247_283)">
<path d="M218.5 285.25L214 293.25L209.5 285.25" stroke="black" stroke-width="2" stroke-linecap="round" stroke-linejoin="round"/>
<path d="M205 285.25L214 301.25L223 285.25" stroke="black" stroke-width="2" stroke-linecap="round" stroke-linejoin="round"/>
</g>
<g clip-path="url(#clip2_247_283)">
<path d="M250.972 284.733C251.135 284.929 251.219 285.193 251.385 285.72L255.025 297.25C253.653 296.564 252.186 296.085 250.673 295.83L248.303 288.107C248.283 288.045 248.243 287.991 248.19 287.952C248.136 287.914 248.073 287.894 248.007 287.894C247.942 287.894 247.878 287.915 247.825 287.953C247.772 287.992 247.732 288.046 247.712 288.108L245.37 295.826C243.851 296.08 242.378 296.559 241 297.248L244.657 285.718C244.825 285.191 244.908 284.928 245.072 284.732C245.216 284.56 245.403 284.426 245.616 284.344C245.858 284.25 246.143 284.25 246.715 284.25H249.327C249.899 284.25 250.185 284.25 250.427 284.344C250.64 284.426 250.827 284.56 250.972 284.733Z" stroke="black" stroke-width="2" stroke-linecap="round" stroke-linejoin="round"/>
<path d="M245 299.25C245 300.75 247 302.25 248 303.25C249 302.25 251 300.25 251 299.25C249 300.25 247 300.25 245 299.25Z" stroke="black" stroke-width="2" stroke-linecap="round" stroke-linejoin="round"/>
</g>
<g clip-path="url(#clip3_247_283)">
<path d="M274.186 297.452L277.801 302.765C278.066 303.155 278.555 303.335 279.016 303.212L289.182 300.494C289.336 300.454 289.48 300.381 289.603 300.279C289.726 300.178 289.825 300.05 289.893 299.906C289.961 299.762 289.996 299.604 289.997 299.445C289.997 299.285 289.962 299.128 289.895 298.983L282.39 283.5C282.354 283.428 282.3 283.366 282.232 283.322C282.165 283.278 282.087 283.253 282.006 283.249C281.926 283.246 281.846 283.264 281.775 283.303C281.704 283.341 281.644 283.398 281.603 283.467L274.15 296.305C274.046 296.48 273.995 296.681 274.002 296.884C274.008 297.087 274.071 297.284 274.186 297.452Z" stroke="black" stroke-width="2" stroke-linecap="round" stroke-linejoin="round"/>
<path d="M278.5 303.25L282 283.25" stroke="black" stroke-width="2" stroke-linecap="round" stroke-linejoin="round"/>
</g>
<g clip-path="url(#clip4_247_283)">
<path d="M326 293.79C324.196 293.445 323.299 292.71 322.477 290.85C321.99 291.546 321.375 292.418 321.557 293.25C321.585 293.488 321.237 294.25 321 294.25H307C307 299.458 310.164 301.25 313.196 301.25C317.32 301.272 321.024 299.874 323.05 296.25C324.196 296.149 325.346 294.745 326 293.79Z" stroke="black" stroke-width="2" stroke-linecap="round" stroke-linejoin="round"/>
<path d="M309 291.25H312V294.25H309V291.25Z" stroke="black" stroke-width="2" stroke-linecap="round" stroke-linejoin="round"/>
<path d="M312 291.25H315V294.25H312V291.25Z" stroke="black" stroke-width="2" stroke-linecap="round" stroke-linejoin="round"/>
<path d="M315 291.25H318V294.25H315V291.25Z" stroke="black" stroke-width="2" stroke-linecap="round" stroke-linejoin="round"/>
<path d="M312 288.25H315V291.25H312V288.25Z" stroke="black" stroke-width="2" stroke-linecap="round" stroke-linejoin="round"/>
<path d="M315 288.25H318V291.25H315V288.25Z" stroke="black" stroke-width="2" stroke-linecap="round" stroke-linejoin="round"/>
<path d="M315 285.25H318V288.25H315V285.25Z" stroke="black" stroke-width="2" stroke-linecap="round" stroke-linejoin="round"/>
<path d="M308.571 299.25C310.071 299.25 310.618 299.176 311.529 298.47" stroke="black" stroke-width="2" stroke-linecap="round" stroke-linejoin="round"/>
<path d="M314 297.25V297.26" stroke="black" stroke-width="2" stroke-linecap="round" stroke-linejoin="round"/>
</g>
<path d="M175 83V190.069C175 195.565 170.565 200.031 165.069 200.069L113.069 200.43C107.52 200.469 103 195.98 103 190.43V83.4511C103 77.9474 98.5527 73.4782 93.049 73.4512L11.0203 73.0491C5.48957 73.022 1.03118 68.5105 1.06958 62.9798L1.43104 10.9306C1.4692 5.43494 5.93505 1 11.4308 1H266C271.523 1 276 5.47715 276 11V63C276 68.5229 271.523 73 266 73H185C179.477 73 175 77.4772 175 83Z" fill="#EEEEEE" stroke="#E0E0E0"/>
<path d="M158 65V176C158 180.418 154.418 184 150 184H126C121.582 184 118 180.418 118 176V65C118 60.5817 114.418 57 110 57H25.1006C20.6432 57 17.0455 53.357 17.1012 48.9L17.4012 24.9C17.456 20.5211 21.0213 17 25.4006 17H252C256.418 17 260 20.5817 260 25V49C260 53.4183 256.418 57 252 57H166C161.582 57 158 60.5817 158 65Z" fill="white" stroke="#E0E0E0"/>
<path d="M28.336 41.156C27.64 41.156 27.016 41.012 26.464 40.724C25.92 40.428 25.472 39.968 25.12 39.344L26.572 38.42C26.78 38.836 27.044 39.148 27.364 39.356C27.692 39.556 28.048 39.656 28.432 39.656C28.816 39.656 29.12 39.568 29.344 39.392C29.576 39.216 29.692 38.984 29.692 38.696C29.692 38.432 29.608 38.216 29.44 38.048C29.272 37.88 29.056 37.748 28.792 37.652C28.536 37.548 28.196 37.44 27.772 37.328C27.1 37.152 26.576 36.868 26.2 36.476C25.832 36.084 25.648 35.58 25.648 34.964C25.648 34.468 25.772 34.032 26.02 33.656C26.268 33.272 26.616 32.976 27.064 32.768C27.512 32.56 28.028 32.456 28.612 32.456C29.244 32.456 29.78 32.588 30.22 32.852C30.668 33.116 31.056 33.504 31.384 34.016L29.944 34.904C29.736 34.568 29.524 34.328 29.308 34.184C29.092 34.032 28.832 33.956 28.528 33.956C28.184 33.956 27.904 34.04 27.688 34.208C27.472 34.376 27.364 34.6 27.364 34.88C27.364 35.16 27.472 35.372 27.688 35.516C27.904 35.652 28.24 35.792 28.696 35.936C29.256 36.112 29.704 36.276 30.04 36.428C30.376 36.58 30.688 36.836 30.976 37.196C31.264 37.548 31.408 38.016 31.408 38.6C31.408 39.104 31.284 39.552 31.036 39.944C30.788 40.328 30.432 40.628 29.968 40.844C29.504 41.052 28.96 41.156 28.336 41.156ZM34.7054 41.156C34.1214 41.156 33.5814 41.012 33.0854 40.724C32.5974 40.428 32.2094 40.028 31.9214 39.524C31.6334 39.02 31.4894 38.472 31.4894 37.88C31.4894 37.28 31.6334 36.732 31.9214 36.236C32.2094 35.732 32.6094 35.336 33.1214 35.048C33.6334 34.752 34.2054 34.604 34.8374 34.604C35.3894 34.604 35.8854 34.708 36.3254 34.916C36.7654 35.116 37.1174 35.4 37.3814 35.768L36.1334 36.788C35.9894 36.572 35.8014 36.4 35.5694 36.272C35.3374 36.144 35.0854 36.08 34.8134 36.08C34.4774 36.08 34.1814 36.164 33.9254 36.332C33.6694 36.492 33.4694 36.708 33.3254 36.98C33.1814 37.252 33.1094 37.552 33.1094 37.88C33.1094 38.2 33.1814 38.5 33.3254 38.78C33.4774 39.052 33.6854 39.272 33.9494 39.44C34.2134 39.6 34.5134 39.68 34.8494 39.68C35.1454 39.68 35.4014 39.616 35.6174 39.488C35.8334 39.36 36.0294 39.176 36.2054 38.936L37.3814 39.956C36.7574 40.756 35.8654 41.156 34.7054 41.156ZM39.7983 41.156C38.7503 41.156 37.8863 40.792 37.2063 40.064L38.2983 39.068C38.7543 39.58 39.2423 39.836 39.7623 39.836C40.0343 39.836 40.2463 39.776 40.3983 39.656C40.5503 39.536 40.6263 39.38 40.6263 39.188C40.6263 39.012 40.5503 38.876 40.3983 38.78C40.2543 38.676 39.9503 38.568 39.4863 38.456C38.7263 38.272 38.2143 38.02 37.9503 37.7C37.6943 37.38 37.5663 36.984 37.5663 36.512C37.5663 35.952 37.7743 35.496 38.1903 35.144C38.6063 34.784 39.1743 34.604 39.8943 34.604C40.4143 34.604 40.8503 34.684 41.2023 34.844C41.5623 35.004 41.8983 35.284 42.2103 35.684L41.0343 36.584C40.7543 36.136 40.3863 35.912 39.9303 35.912C39.6983 35.912 39.5103 35.96 39.3663 36.056C39.2223 36.144 39.1503 36.28 39.1503 36.464C39.1503 36.592 39.2023 36.704 39.3063 36.8C39.4183 36.888 39.6463 36.976 39.9903 37.064C40.8463 37.288 41.4303 37.564 41.7423 37.892C42.0623 38.22 42.2223 38.636 42.2223 39.14C42.2223 39.516 42.1143 39.86 41.8983 40.172C41.6903 40.476 41.4023 40.716 41.0343 40.892C40.6663 41.068 40.2543 41.156 39.7983 41.156ZM44.6298 41.156C43.5818 41.156 42.7178 40.792 42.0378 40.064L43.1298 39.068C43.5858 39.58 44.0738 39.836 44.5938 39.836C44.8658 39.836 45.0778 39.776 45.2298 39.656C45.3818 39.536 45.4578 39.38 45.4578 39.188C45.4578 39.012 45.3818 38.876 45.2298 38.78C45.0858 38.676 44.7818 38.568 44.3178 38.456C43.5578 38.272 43.0458 38.02 42.7818 37.7C42.5258 37.38 42.3978 36.984 42.3978 36.512C42.3978 35.952 42.6058 35.496 43.0218 35.144C43.4378 34.784 44.0058 34.604 44.7258 34.604C45.2458 34.604 45.6818 34.684 46.0338 34.844C46.3938 35.004 46.7298 35.284 47.0418 35.684L45.8658 36.584C45.5858 36.136 45.2178 35.912 44.7618 35.912C44.5298 35.912 44.3418 35.96 44.1978 36.056C44.0538 36.144 43.9818 36.28 43.9818 36.464C43.9818 36.592 44.0338 36.704 44.1378 36.8C44.2498 36.888 44.4778 36.976 44.8218 37.064C45.6778 37.288 46.2618 37.564 46.5738 37.892C46.8938 38.22 47.0538 38.636 47.0538 39.14C47.0538 39.516 46.9458 39.86 46.7298 40.172C46.5218 40.476 46.2338 40.716 45.8658 40.892C45.4978 41.068 45.0858 41.156 44.6298 41.156Z" fill="#2D3748"/>
<g clip-path="url(#clip5_247_283)">
<path d="M70 37C70 37.7956 70.3161 38.5587 70.8787 39.1213C71.4413 39.6839 72.2044 40 73 40C73.7956 40 74.5587 39.6839 75.1213 39.1213C75.6839 38.5587 76 37.7956 76 37C76 36.2044 75.6839 35.4413 75.1213 34.8787C74.5587 34.3161 73.7956 34 73 34C72.2044 34 71.4413 34.3161 70.8787 34.8787C70.3161 35.4413 70 36.2044 70 37Z" stroke="black" stroke-width="2" stroke-linecap="round" stroke-linejoin="round"/>
<path d="M64 31C64 30.2044 64.3161 29.4413 64.8787 28.8787C65.4413 28.3161 66.2044 28 67 28H73C73.7956 28 74.5587 28.3161 75.1213 28.8787C75.6839 29.4413 76 30.2044 76 31C76 31.7956 75.6839 32.5587 75.1213 33.1213C74.5587 33.6839 73.7956 34 73 34H67C66.2044 34 65.4413 33.6839 64.8787 33.1213C64.3161 32.5587 64 31.7956 64 31Z" stroke="black" stroke-width="2" stroke-linecap="round" stroke-linejoin="round"/>
<path d="M67 34C66.2044 34 65.4413 34.3161 64.8787 34.8787C64.3161 35.4413 64 36.2044 64 37C64 37.7956 64.3161 38.5587 64.8787 39.1213C65.4413 39.6839 66.2044 40 67 40M67 40H70M67 40C66.4067 40 65.8266 40.1759 65.3333 40.5056C64.8399 40.8352 64.4554 41.3038 64.2284 41.8519C64.0013 42.4001 63.9419 43.0033 64.0576 43.5853C64.1734 44.1672 64.4591 44.7018 64.8787 45.1213C65.2982 45.5409 65.8328 45.8266 66.4147 45.9424C66.9967 46.0581 67.5999 45.9987 68.1481 45.7716C68.6962 45.5446 69.1648 45.1601 69.4944 44.6667C69.8241 44.1734 70 43.5933 70 43V28" stroke="black" stroke-width="2" stroke-linecap="round" stroke-linejoin="round"/>
</g>
<g clip-path="url(#clip6_247_283)">
<path d="M145.48 42.007C146.596 40.3395 147.123 38.3467 146.977 36.3453C146.831 34.3439 146.02 32.4487 144.674 30.9608C143.327 29.473 141.522 28.4778 139.545 28.1335C137.568 27.7892 135.533 28.1154 133.763 29.0605C131.992 30.0055 130.589 31.515 129.775 33.3492C128.961 35.1834 128.783 37.2371 129.27 39.1838C129.757 41.1306 130.88 42.8588 132.462 44.0938C134.044 45.3288 135.993 45.9997 138 46C138.896 46 139.691 45.427 139.974 44.577L143.5 34" stroke="black" stroke-width="2" stroke-linecap="round" stroke-linejoin="round"/>
<path d="M139.5 34L141.5 40" stroke="black" stroke-width="2" stroke-linecap="round" stroke-linejoin="round"/>
<path d="M136.764 34.4107C136.309 34.1442 135.792 34.0022 135.265 33.9991C134.738 33.9959 134.219 34.1317 133.761 34.3928C133.303 34.6539 132.922 35.031 132.656 35.4862C132.391 35.9414 132.249 36.4586 132.247 36.9857C132.245 37.5129 132.381 38.0313 132.643 38.4888C132.905 38.9464 133.283 39.3268 133.738 39.592C134.194 39.8571 134.711 39.9975 135.238 39.999C135.765 40.0005 136.284 39.8632 136.741 39.6007" stroke="black" stroke-width="2" stroke-linecap="round" stroke-linejoin="round"/>
</g>
<g clip-path="url(#clip7_247_283)">
<path d="M239.667 31C237.177 31 235.623 32.222 235 34.667C235.933 33.444 237.023 32.987 238.267 33.292C238.977 33.466 239.484 33.972 240.045 34.532C240.961 35.444 242.045 36.5 244.333 36.5C246.823 36.5 248.377 35.278 249 32.833C248.067 34.056 246.977 34.513 245.733 34.208C245.023 34.034 244.516 33.528 243.955 32.968C243.039 32.056 241.98 31 239.667 31ZM235.667 37.5C233.177 37.5 231.623 38.722 231 41.167C231.933 39.944 233.023 39.487 234.267 39.792C234.977 39.966 235.484 40.472 236.045 41.032C236.961 41.944 238.02 43 240.333 43C242.823 43 244.377 41.778 245 39.333C244.067 40.556 242.977 41.013 241.733 40.708C241.023 40.534 240.516 40.028 239.955 39.468C239.039 38.556 237.98 37.5 235.667 37.5Z" stroke="black" stroke-width="2" stroke-linecap="round" stroke-linejoin="round"/>
</g>
<g clip-path="url(#clip8_247_283)">
<path d="M209 42.5C209.32 42.82 209.754 43 210.207 43H210.75C211.44 43 212 42.44 212 41.75V41.5C212 41.1022 211.842 40.7206 211.561 40.4393C211.279 40.158 210.898 40 210.5 40C210.102 40 209.721 39.842 209.439 39.5607C209.158 39.2794 209 38.8978 209 38.5V38.25C209 37.56 209.56 37 210.25 37H210.793C211.246 37 211.68 37.18 212 37.5" stroke="black" stroke-width="2" stroke-linecap="round" stroke-linejoin="round"/>
<path d="M203 37H207" stroke="black" stroke-width="2" stroke-linecap="round" stroke-linejoin="round"/>
<path d="M205 37V43" stroke="black" stroke-width="2" stroke-linecap="round" stroke-linejoin="round"/>
<path d="M215 44V30C215 29.4696 214.789 28.9609 214.414 28.5858C214.039 28.2107 213.53 28 213 28H199C198.47 28 197.961 28.2107 197.586 28.5858C197.211 28.9609 197 29.4696 197 30V44C197 44.5304 197.211 45.0391 197.586 45.4142C197.961 45.7893 198.47 46 199 46H213C213.53 46 214.039 45.7893 214.414 45.4142C214.789 45.0391 215 44.5304 215 44Z" stroke="black" stroke-width="2" stroke-linecap="round" stroke-linejoin="round"/>
</g>
<g clip-path="url(#clip9_247_283)">
<path d="M112 29L110 43.5L104 45.5L98 43.5L96 29H112Z" stroke="black" stroke-width="2" stroke-linecap="round" stroke-linejoin="round"/>
<path d="M100.5 33H107.5L103 37H107L106.5 40.5L104 41.25L101.5 40.5L101.4 40" stroke="black" stroke-width="2" stroke-linecap="round" stroke-linejoin="round"/>
</g>
<g clip-path="url(#clip10_247_283)">
<path d="M166.306 33.7109C163.704 34.4339 162 35.6369 162 36.9999C162 39.2099 166.477 40.9999 172 40.9999C172.773 40.9999 173.526 40.9649 174.248 40.8979" stroke="black" stroke-width="2" stroke-linecap="round" stroke-linejoin="round"/>
<path d="M177.692 40.289C180.295 39.567 182 38.363 182 37C182 34.79 177.523 33 172 33C171.227 33 170.474 33.035 169.75 33.102" stroke="black" stroke-width="2" stroke-linecap="round" stroke-linejoin="round"/>
<path d="M166.305 40.287C165.629 42.902 165.82 44.98 167 45.66C168.913 46.765 172.703 43.783 175.464 39C175.851 38.33 176.197 37.661 176.5 37" stroke="black" stroke-width="2" stroke-linecap="round" stroke-linejoin="round"/>
<path d="M177.694 33.7164C178.371 31.1004 178.181 29.0204 177 28.3404C175.087 27.2354 171.297 30.2174 168.536 35.0004C168.149 35.6704 167.803 36.3404 167.499 37.0004" stroke="black" stroke-width="2" stroke-linecap="round" stroke-linejoin="round"/>
<path d="M172 30.4236C170.075 28.5316 168.18 27.6576 167 28.3396C165.087 29.4436 165.774 34.2166 168.536 38.9996C168.922 39.6696 169.329 40.3036 169.748 40.8956" stroke="black" stroke-width="2" stroke-linecap="round" stroke-linejoin="round"/>
<path d="M172 43.5735C173.926 45.4665 175.821 46.3415 177 45.6595C178.913 44.5555 178.226 39.7825 175.464 34.9995C175.089 34.3495 174.684 33.7165 174.252 33.1025" stroke="black" stroke-width="2" stroke-linecap="round" stroke-linejoin="round"/>
<path d="M171.5 37.8656C171.614 37.9323 171.74 37.9758 171.87 37.9937C172.001 38.0116 172.134 38.0034 172.261 37.9697C172.389 37.936 172.509 37.8774 172.613 37.7973C172.718 37.7172 172.806 37.6172 172.872 37.5029C172.938 37.3887 172.981 37.2626 172.998 37.1318C173.015 37.001 173.005 36.8682 172.971 36.7409C172.936 36.6137 172.877 36.4945 172.796 36.3902C172.715 36.286 172.615 36.1988 172.5 36.1336C172.271 36.0031 171.999 35.9687 171.744 36.0379C171.489 36.1071 171.272 36.2742 171.14 36.5029C171.008 36.7316 170.972 37.0032 171.039 37.2585C171.107 37.5138 171.272 37.7321 171.5 37.8656Z" stroke="black" stroke-width="2" stroke-linecap="round" stroke-linejoin="round"/>
</g>
<g clip-path="url(#clip11_247_283)">
<path d="M143 136.5C140.702 137.589 138.168 138.084 135.63 137.94C133.208 137.532 130.928 136.521 129 135" stroke="black" stroke-width="2" stroke-linecap="round" stroke-linejoin="round"/>
<path d="M145.5 139C146.407 137.589 146.951 135.677 147 134C145.803 133.227 144.423 133.065 143 133" stroke="black" stroke-width="2" stroke-linecap="round" stroke-linejoin="round"/>
<path d="M129 129V124.5C129 124.102 129.158 123.721 129.439 123.439C129.721 123.158 130.102 123 130.5 123C130.898 123 131.279 123.158 131.561 123.439C131.842 123.721 132 124.102 132 124.5V129" stroke="black" stroke-width="2" stroke-linecap="round" stroke-linejoin="round"/>
<path d="M129 127H132" stroke="black" stroke-width="2" stroke-linecap="round" stroke-linejoin="round"/>
<path d="M135 123L136.2 129L138 125L139.8 129L141 123" stroke="black" stroke-width="2" stroke-linecap="round" stroke-linejoin="round"/>
<path d="M144 128.25C144 128.664 144.336 129 144.75 129H146C146.265 129 146.52 128.895 146.707 128.707C146.895 128.52 147 128.265 147 128V127C147 126.735 146.895 126.48 146.707 126.293C146.52 126.105 146.265 126 146 126H145C144.735 126 144.48 125.895 144.293 125.707C144.105 125.52 144 125.265 144 125V124C144 123.735 144.105 123.48 144.293 123.293C144.48 123.105 144.735 123 145 123H146.25C146.449 123 146.64 123.079 146.78 123.22C146.921 123.36 147 123.551 147 123.75" stroke="black" stroke-width="2" stroke-linecap="round" stroke-linejoin="round"/>
</g>
<g clip-path="url(#clip12_247_283)">
<path d="M136 93C136 92.2044 135.684 91.4413 135.121 90.8787C134.559 90.3161 133.796 90 133 90H132.5C131.572 90 130.682 90.3687 130.025 91.0251C129.369 91.6815 129 92.5717 129 93.5V98.5C129 99.4283 129.369 100.318 130.025 100.975C130.682 101.631 131.572 102 132.5 102H133C133.796 102 134.559 101.684 135.121 101.121C135.684 100.559 136 99.7956 136 99" stroke="black" stroke-width="2" stroke-linecap="round" stroke-linejoin="round"/>
<path d="M142 91L141 101" stroke="black" stroke-width="2" stroke-linecap="round" stroke-linejoin="round"/>
<path d="M146 91L145 101" stroke="black" stroke-width="2" stroke-linecap="round" stroke-linejoin="round"/>
<path d="M140 94H147.5" stroke="black" stroke-width="2" stroke-linecap="round" stroke-linejoin="round"/>
<path d="M147 98H139.5" stroke="black" stroke-width="2" stroke-linecap="round" stroke-linejoin="round"/>
</g>
<g clip-path="url(#clip13_247_283)">
<path d="M127 58H149V65H137V67H133V65H127V58Z" stroke="black" stroke-width="2" stroke-linecap="round" stroke-linejoin="round"/>
<path d="M133 58V65" stroke="black" stroke-width="2" stroke-linecap="round" stroke-linejoin="round"/>
<path d="M140 58V65" stroke="black" stroke-width="2" stroke-linecap="round" stroke-linejoin="round"/>
<path d="M143 61V65" stroke="black" stroke-width="2" stroke-linecap="round" stroke-linejoin="round"/>
<path d="M130 61V65" stroke="black" stroke-width="2" stroke-linecap="round" stroke-linejoin="round"/>
<path d="M137 61V62" stroke="black" stroke-width="2" stroke-linecap="round" stroke-linejoin="round"/>
<path d="M146 61V65" stroke="black" stroke-width="2" stroke-linecap="round" stroke-linejoin="round"/>
</g>
<g clip-path="url(#clip14_247_283)">
<path d="M132 159.5L128 169H132L138 154L132 159.5Z" stroke="black" stroke-width="2" stroke-linecap="round" stroke-linejoin="round"/>
<path d="M148 172L141 157L138 164L142 169L134 172H148Z" stroke="black" stroke-width="2" stroke-linecap="round" stroke-linejoin="round"/>
</g>
<defs>
<clipPath id="clip0_247_283">
<rect width="24" height="24" fill="white" transform="translate(168 281.25)"/>
</clipPath>
<clipPath id="clip1_247_283">
<rect width="24" height="24" fill="white" transform="translate(202 281.25)"/>
</clipPath>
<clipPath id="clip2_247_283">
<rect width="24" height="24" fill="white" transform="translate(236 281.25)"/>
</clipPath>
<clipPath id="clip3_247_283">
<rect width="24" height="24" fill="white" transform="translate(270 281.25)"/>
</clipPath>
<clipPath id="clip4_247_283">
<rect width="24" height="24" fill="white" transform="translate(304 281.25)"/>
</clipPath>
<clipPath id="clip5_247_283">
<rect width="24" height="24" fill="white" transform="translate(58 25)"/>
</clipPath>
<clipPath id="clip6_247_283">
<rect width="24" height="24" fill="white" transform="translate(126 25)"/>
</clipPath>
<clipPath id="clip7_247_283">
<rect width="24" height="24" fill="white" transform="translate(228 25)"/>
</clipPath>
<clipPath id="clip8_247_283">
<rect width="24" height="24" fill="white" transform="translate(194 25)"/>
</clipPath>
<clipPath id="clip9_247_283">
<rect width="24" height="24" fill="white" transform="translate(92 25)"/>
</clipPath>
<clipPath id="clip10_247_283">
<rect width="24" height="24" fill="white" transform="translate(160 25)"/>
</clipPath>
<clipPath id="clip11_247_283">
<rect width="24" height="24" fill="white" transform="translate(126 118)"/>
</clipPath>
<clipPath id="clip12_247_283">
<rect width="24" height="24" fill="white" transform="translate(126 84)"/>
</clipPath>
<clipPath id="clip13_247_283">
<rect width="24" height="24" fill="white" transform="translate(126 50)"/>
</clipPath>
<clipPath id="clip14_247_283">
<rect width="24" height="24" fill="white" transform="translate(126 152)"/>
</clipPath>
</defs>
</svg>
