<svg width="1296" height="562" viewBox="0 0 1296 562" fill="none" xmlns="http://www.w3.org/2000/svg">
<g clip-path="url(#clip0_396_364)">
<rect width="1296" height="562" fill="white"/>
<rect x="9.62891" y="-50.5332" width="96" height="41" rx="4" transform="rotate(10.8131 9.62891 -50.5332)" fill="#DADADA"/>
<rect x="118.66" y="-29.709" width="96" height="41" rx="4" transform="rotate(10.8131 118.66 -29.709)" fill="#DADADA"/>
<rect x="227.688" y="-8.88477" width="96" height="41" rx="4" transform="rotate(10.8131 227.688 -8.88477)" fill="#DADADA"/>
<rect x="336.715" y="11.9395" width="97" height="41" rx="4" transform="rotate(10.8131 336.715 11.9395)" fill="#DADADA"/>
<rect x="20.6992" y="-108.485" width="430" height="41" rx="4" transform="rotate(10.8131 20.6992 -108.485)" fill="#DADADA"/>
<rect x="-10.2578" y="53.584" width="430" height="163" rx="4" transform="rotate(10.8131 -10.2578 53.584)" fill="#DADADA"/>
<rect x="-47.9648" y="251.016" width="207" height="163" rx="4" transform="rotate(10.8131 -47.9648 251.016)" fill="#DADADA"/>
<rect x="170.094" y="292.664" width="208" height="163" rx="4" transform="rotate(10.8131 170.094 292.664)" fill="#DADADA"/>
<rect width="430" height="21" transform="translate(-3.87891 20.1885) rotate(10.8131)" fill="#DADADA"/>
<rect width="221" height="22" transform="translate(478.184 86.8086) rotate(10.8131)" fill="#DADADA"/>
<rect width="208" height="128" transform="translate(137.074 465.539) rotate(10.8131)" fill="#DADADA"/>
<rect width="207" height="128" transform="translate(-80.9844 423.891) rotate(10.8131)" fill="#DADADA"/>
<rect width="430" height="22" transform="translate(484.375 54.3945) rotate(10.8131)" fill="#DADADA"/>
<rect width="430" height="21" transform="translate(490.375 22.9629) rotate(10.8131)" fill="#DADADA"/>
<rect width="430" height="22" transform="translate(496.566 -9.45117) rotate(10.8131)" fill="#DADADA"/>
<rect width="430" height="199" transform="translate(466.738 146.726) rotate(10.8131)" fill="#DADADA"/>
<rect width="430" height="199" transform="translate(936.668 148.927) rotate(10.8131)" fill="#DADADA"/>
<rect width="430" height="199" transform="translate(978.129 -68.1494) rotate(10.8131)" fill="#DADADA"/>
<rect width="204" height="162" transform="translate(896.336 360.108) rotate(10.8131)" fill="#DADADA"/>
<rect width="295" height="161" transform="translate(862.379 537.895) rotate(10.8131)" fill="#DADADA"/>
<rect width="204" height="162" transform="translate(1118.32 402.508) rotate(10.8131)" fill="#DADADA"/>
<rect width="430" height="281" transform="translate(425.09 364.783) rotate(10.8131)" fill="#DADADA"/>
</g>
<defs>
<clipPath id="clip0_396_364">
<rect width="1296" height="562" fill="white"/>
</clipPath>
</defs>
</svg>
