<svg width="32" height="32" viewBox="0 0 32 32" fill="none" xmlns="http://www.w3.org/2000/svg">
<path d="M27.6355 16.112C27.8419 16.112 28.0103 15.9412 27.9995 15.7311C27.806 11.9838 24.7742 9.00547 21.0606 9H21.0401C20.443 9.00088 19.8634 9.07864 19.3105 9.22407C19.3105 9.22407 18.6726 9.37865 18.0222 9.70681C17.3718 10.035 16.7009 10.5599 16.7009 10.5599V21.6642L19.3105 23L19.3106 16.2695C19.3106 16.1687 19.3498 16.0719 19.4197 16.0005L20.7856 14.6046C20.9317 14.4553 21.169 14.4553 21.3151 14.6046L22.7901 16.112L27.6355 16.112Z" fill="#214567"/>
<path d="M4.36444 15.888C4.15798 15.888 3.98957 16.0588 4.0005 16.2689C4.1956 20.0162 7.25245 22.9945 10.9968 23H11.0175C11.6195 22.9991 12.2038 22.9214 12.7613 22.7759C12.7613 22.7759 13.4045 22.6214 14.0603 22.2932C14.7161 21.965 15.3925 21.4401 15.3925 21.4401V10.3358L12.7613 9L12.7612 15.7296C12.7612 15.831 12.7215 15.9282 12.651 15.9997L11.2707 17.3987C11.1249 17.5466 10.8893 17.5466 10.7435 17.3987L9.25299 15.888L4.36444 15.888Z" fill="#214567"/>
</svg>
