<svg width="300" height="300" viewBox="0 0 300 300" fill="none" xmlns="http://www.w3.org/2000/svg">
<path d="M271.203 150.644C273.354 150.644 275.108 148.9 274.995 146.754C272.979 108.477 241.398 78.0559 202.714 78H202.501C196.281 78.009 190.244 78.8032 184.485 80.2887C184.485 80.2887 177.839 81.8676 171.064 85.2196C164.289 88.5716 157.301 93.9333 157.301 93.9333V207.355L184.485 221L184.485 152.253C184.485 151.223 184.894 150.235 185.622 149.505L199.85 135.247C201.372 133.722 203.844 133.722 205.365 135.247L220.73 150.644L271.203 150.644Z" fill="#214567"/>
<path d="M28.7963 148.356C26.6457 148.356 24.8913 150.1 25.0053 152.246C27.0375 190.523 58.8796 220.944 97.8832 221H98.0985C104.37 220.991 110.457 220.197 116.264 218.711C116.264 218.711 122.964 217.132 129.795 213.78C136.626 210.428 143.672 205.067 143.672 205.067V91.6447L116.264 78L116.263 146.738C116.263 147.773 115.849 148.766 115.115 149.496L100.737 163.787C99.2176 165.297 96.7633 165.297 95.2443 163.787L79.7187 148.356L28.7963 148.356Z" fill="#214567"/>
</svg>
